<svg xmlns="http://www.w3.org/2000/svg" viewBox="0 0 512 512">
  <rect width="512" height="512" rx="15%" fill="#0a0a0a"/>
  <path d="M448 224h-48v-32c0-17.7-14.3-32-32-32h-32v-32c0-17.7-14.3-32-32-32H208c-17.7 0-32 14.3-32 32v32h-32c-17.7 0-32 14.3-32 32v32H64c-17.7 0-32 14.3-32 32v64c0 17.7 14.3 32 32 32h48v32c0 17.7 14.3 32 32 32h32v32c0 17.7 14.3 32 32 32h96c17.7 0 32-14.3 32-32v-32h32c17.7 0 32-14.3 32-32v-32h48c17.7 0 32-14.3 32-32v-64c0-17.7-14.3-32-32-32zM176 128h160v160H176V128zm240 256H96v-64h320v64z" fill="#00f2ff"/>
</svg>
